<svg xmlns="http://www.w3.org/2000/svg" width="1200" height="540" viewBox="0 0 1200 540">
<rect width="1200" height="540" fill="#f8fafc"/>
<style>
  .title { font: 700 24px Inter, Arial, sans-serif; fill: #20242a; }
  .subtitle { font: 13px Inter, Arial, sans-serif; fill: #56606d; }
  .axis { stroke: #94a3b8; stroke-width: 1; }
  .grid { stroke: #e2e8f0; stroke-width: 1; }
  .tick { font: 11px Inter, Arial, sans-serif; fill: #64748b; }
  .label { font: 12px Inter, Arial, sans-serif; fill: #334155; }
  .small { font: 11px Inter, Arial, sans-serif; fill: #475569; }
  .legend { font: 12px Inter, Arial, sans-serif; fill: #1f2937; }
</style>
<text x="48" y="42" class="title">Shape error breakdown: under-cut vs over-break</text>
<text x="48" y="65" class="subtitle">Average final-grid cell errors across two seeds. The selected surrogate mostly under-cuts rectangle/circular targets rather than over-breaking.</text>
<line x1="80" y1="424.0" x2="930" y2="424.0" class="grid"/>
<text x="70" y="428.0" text-anchor="end" class="tick">0</text>
<line x1="80" y1="358.0" x2="930" y2="358.0" class="grid"/>
<text x="70" y="362.0" text-anchor="end" class="tick">8</text>
<line x1="80" y1="292.0" x2="930" y2="292.0" class="grid"/>
<text x="70" y="296.0" text-anchor="end" class="tick">16</text>
<line x1="80" y1="226.0" x2="930" y2="226.0" class="grid"/>
<text x="70" y="230.0" text-anchor="end" class="tick">24</text>
<line x1="80" y1="160.0" x2="930" y2="160.0" class="grid"/>
<text x="70" y="164.0" text-anchor="end" class="tick">32</text>
<line x1="80" y1="94.0" x2="930" y2="94.0" class="grid"/>
<text x="70" y="98.0" text-anchor="end" class="tick">40</text>
<line x1="80" y1="424" x2="930" y2="424" class="axis"/>
<line x1="80" y1="94" x2="80" y2="424" class="axis"/>
<text x="24" y="259.0" transform="rotate(-90 24 259.0)" text-anchor="middle" class="label">cells</text>
<text x="186.25" y="450" text-anchor="middle" class="tick">triangle wedge</text>
<rect x="137.2" y="337.4" width="42" height="86.6" fill="#d89b45" rx="3"/>
<text x="158.2" y="469" text-anchor="middle" class="tick">G</text>
<text x="158.2" y="332.4" text-anchor="middle" class="tick">10.5</text>
<rect x="193.2" y="325.0" width="42" height="99.0" fill="#d89b45" rx="3"/>
<rect x="193.2" y="316.8" width="42" height="8.2" fill="#bf5f5f" rx="3"/>
<text x="214.2" y="484" text-anchor="middle" class="tick">S</text>
<text x="214.2" y="311.8" text-anchor="middle" class="tick">13.0</text>
<text x="398.75" y="450" text-anchor="middle" class="tick">diagonal bevel</text>
<rect x="349.8" y="378.6" width="42" height="45.4" fill="#d89b45" rx="3"/>
<rect x="349.8" y="374.5" width="42" height="4.1" fill="#bf5f5f" rx="3"/>
<text x="370.8" y="469" text-anchor="middle" class="tick">G</text>
<text x="370.8" y="369.5" text-anchor="middle" class="tick">6.0</text>
<rect x="405.8" y="362.1" width="42" height="61.9" fill="#d89b45" rx="3"/>
<text x="426.8" y="484" text-anchor="middle" class="tick">S</text>
<text x="426.8" y="357.1" text-anchor="middle" class="tick">7.5</text>
<text x="611.25" y="450" text-anchor="middle" class="tick">rectangle cut</text>
<rect x="562.2" y="316.8" width="42" height="107.2" fill="#d89b45" rx="3"/>
<text x="583.2" y="469" text-anchor="middle" class="tick">G</text>
<text x="583.2" y="311.8" text-anchor="middle" class="tick">13.0</text>
<rect x="618.2" y="221.9" width="42" height="202.1" fill="#d89b45" rx="3"/>
<rect x="618.2" y="213.6" width="42" height="8.2" fill="#bf5f5f" rx="3"/>
<text x="639.2" y="484" text-anchor="middle" class="tick">S</text>
<text x="639.2" y="208.6" text-anchor="middle" class="tick">25.5</text>
<text x="823.75" y="450" text-anchor="middle" class="tick">circular notch</text>
<rect x="774.8" y="292.0" width="42" height="132.0" fill="#d89b45" rx="3"/>
<rect x="774.8" y="279.6" width="42" height="12.4" fill="#bf5f5f" rx="3"/>
<text x="795.8" y="469" text-anchor="middle" class="tick">G</text>
<text x="795.8" y="274.6" text-anchor="middle" class="tick">17.5</text>
<rect x="830.8" y="176.5" width="42" height="247.5" fill="#d89b45" rx="3"/>
<rect x="830.8" y="160.0" width="42" height="16.5" fill="#bf5f5f" rx="3"/>
<text x="851.8" y="484" text-anchor="middle" class="tick">S</text>
<text x="851.8" y="155.0" text-anchor="middle" class="tick">32.0</text>
<rect x="970" y="106" width="18" height="18" fill="#d89b45" rx="2"/>
<text x="998" y="120" class="legend">under-cut</text>
<text x="998" y="137" class="small">target cells left alive</text>
<rect x="970" y="152" width="18" height="18" fill="#bf5f5f" rx="2"/>
<text x="998" y="166" class="legend">over-break</text>
<text x="998" y="183" class="small">desired cells removed</text>
<text x="970" y="238" class="small">G = greedy</text>
<text x="970" y="258" class="small">S = cem_surrogate</text>
</svg>
