<svg xmlns="http://www.w3.org/2000/svg" width="1100" height="540" viewBox="0 0 1100 540">
<rect width="1100" height="540" fill="#f8fafc"/>
<style>
  .title { font: 700 24px Inter, Arial, sans-serif; fill: #20242a; }
  .subtitle { font: 13px Inter, Arial, sans-serif; fill: #56606d; }
  .axis { stroke: #94a3b8; stroke-width: 1; }
  .grid { stroke: #e2e8f0; stroke-width: 1; }
  .tick { font: 11px Inter, Arial, sans-serif; fill: #64748b; }
  .label { font: 12px Inter, Arial, sans-serif; fill: #334155; }
  .small { font: 11px Inter, Arial, sans-serif; fill: #475569; }
  .legend { font: 12px Inter, Arial, sans-serif; fill: #1f2937; }
</style>
<text x="48" y="42" class="title">Balanced 24x24 W&amp;B validation trajectory</text>
<text x="48" y="65" class="subtitle">Selection score = 0.65 edge F1 + 0.35 node IoU. Lower LR after 524mg3ns did not improve the best score.</text>
<line x1="76" y1="442.0" x2="776" y2="442.0" class="grid"/>
<text x="66" y="446.0" text-anchor="end" class="tick">0.840</text>
<line x1="76" y1="372.0" x2="776" y2="372.0" class="grid"/>
<text x="66" y="376.0" text-anchor="end" class="tick">0.858</text>
<line x1="76" y1="302.0" x2="776" y2="302.0" class="grid"/>
<text x="66" y="306.0" text-anchor="end" class="tick">0.876</text>
<line x1="76" y1="232.0" x2="776" y2="232.0" class="grid"/>
<text x="66" y="236.0" text-anchor="end" class="tick">0.894</text>
<line x1="76" y1="162.0" x2="776" y2="162.0" class="grid"/>
<text x="66" y="166.0" text-anchor="end" class="tick">0.912</text>
<line x1="76" y1="92.0" x2="776" y2="92.0" class="grid"/>
<text x="66" y="96.0" text-anchor="end" class="tick">0.930</text>
<text x="76.0" y="462" text-anchor="middle" class="tick">1</text>
<text x="126.0" y="462" text-anchor="middle" class="tick">2</text>
<text x="226.0" y="462" text-anchor="middle" class="tick">4</text>
<text x="326.0" y="462" text-anchor="middle" class="tick">6</text>
<text x="426.0" y="462" text-anchor="middle" class="tick">8</text>
<text x="526.0" y="462" text-anchor="middle" class="tick">10</text>
<text x="626.0" y="462" text-anchor="middle" class="tick">12</text>
<text x="726.0" y="462" text-anchor="middle" class="tick">14</text>
<text x="776.0" y="462" text-anchor="middle" class="tick">15</text>
<line x1="76" y1="442" x2="776" y2="442" class="axis"/>
<line x1="76" y1="92" x2="76" y2="442" class="axis"/>
<text x="426.0" y="488" text-anchor="middle" class="label">epoch</text>
<text x="24" y="267.0" transform="rotate(-90 24 267.0)" text-anchor="middle" class="label">selection score</text>
<path d="M 76.00 249.23 L 126.00 265.65 L 176.00 263.88 L 226.00 187.85 L 276.00 215.09 L 326.00 165.12 L 376.00 159.02 L 426.00 237.11 L 476.00 155.46 L 526.00 235.37 L 576.00 205.62 L 626.00 212.85 L 676.00 199.88 L 726.00 167.56 L 776.00 200.05" fill="none" stroke="#64748b" stroke-width="3" stroke-linejoin="round" stroke-linecap="round"/>
<circle cx="476.0" cy="155.5" r="5" fill="white" stroke="#64748b" stroke-width="3"/>
<path d="M 76.00 399.09 L 126.00 206.12 L 176.00 192.63 L 226.00 291.67 L 276.00 207.56 L 326.00 147.70 L 376.00 230.43 L 426.00 196.06 L 476.00 182.02 L 526.00 207.52 L 576.00 201.55 L 626.00 205.16" fill="none" stroke="#2563eb" stroke-width="3" stroke-linejoin="round" stroke-linecap="round"/>
<circle cx="326.0" cy="147.7" r="5" fill="white" stroke="#2563eb" stroke-width="3"/>
<path d="M 76.00 253.85 L 126.00 288.81 L 176.00 247.81 L 226.00 269.86 L 276.00 185.29 L 326.00 182.25 L 376.00 196.89 L 426.00 175.65 L 476.00 186.20 L 526.00 175.84 L 576.00 245.00 L 626.00 182.07 L 676.00 205.56" fill="none" stroke="#7c3aed" stroke-width="3" stroke-linejoin="round" stroke-linecap="round"/>
<circle cx="426.0" cy="175.6" r="5" fill="white" stroke="#7c3aed" stroke-width="3"/>
<path d="M 76.00 336.90 L 126.00 205.50 L 176.00 201.06 L 226.00 325.24 L 276.00 182.39 L 326.00 154.85 L 376.00 278.39 L 426.00 249.19 L 476.00 227.44 L 526.00 225.99 L 576.00 236.15 L 626.00 191.29" fill="none" stroke="#059669" stroke-width="3" stroke-linejoin="round" stroke-linecap="round"/>
<circle cx="326.0" cy="154.9" r="5" fill="white" stroke="#059669" stroke-width="3"/>
<rect x="802" y="72" width="250" height="310" rx="8" fill="white" stroke="#e2e8f0"/>
<text x="820" y="100" class="label" font-weight="700">Best validation score</text>
<line x1="820" y1="128" x2="844" y2="128" stroke="#64748b" stroke-width="4" stroke-linecap="round"/>
<text x="854" y="132" class="legend">ixmf3u6q</text>
<text x="854" y="149" class="small">epoch 9 · score 0.9137</text>
<line x1="820" y1="170" x2="844" y2="170" stroke="#2563eb" stroke-width="4" stroke-linecap="round"/>
<text x="854" y="174" class="legend">524mg3ns</text>
<text x="854" y="191" class="small">epoch 6 · score 0.9157</text>
<line x1="820" y1="212" x2="844" y2="212" stroke="#7c3aed" stroke-width="4" stroke-linecap="round"/>
<text x="854" y="216" class="legend">r9g6ad4h</text>
<text x="854" y="233" class="small">epoch 8 · score 0.9085</text>
<line x1="820" y1="254" x2="844" y2="254" stroke="#059669" stroke-width="4" stroke-linecap="round"/>
<text x="854" y="258" class="legend">bwgmxjw2</text>
<text x="854" y="275" class="small">epoch 6 · score 0.9138</text>
<text x="820" y="350" class="small">Selected: 524mg3ns</text>
<text x="820" y="370" class="small">Later LR reductions plateaued below it.</text>
</svg>
